Normalized EMG Linear Envelopes
nRows=234
nColumns=4

endheader
time	 med_gas_r	  soleus_r	 tib_ant_r	
2.72782	  0.099482	  0.081080	  0.029124	
2.76109	  0.096035	  0.077693	  0.028707	
2.79435	  0.092847	  0.073874	  0.027841	
2.82762	  0.090203	  0.070285	  0.026557	
2.86089	  0.088034	  0.067073	  0.024923	
2.89415	  0.086114	  0.064369	  0.023203	
2.92742	  0.084311	  0.062363	  0.021706	
2.96069	  0.082676	  0.061331	  0.020578	
2.99395	  0.081526	  0.061408	  0.019833	
3.02722	  0.081202	  0.062556	  0.019515	
3.06048	  0.081990	  0.064326	  0.019672	
3.09375	  0.083931	  0.065931	  0.020338	
3.12702	  0.086566	  0.066854	  0.021441	
3.16028	  0.089179	  0.067095	  0.022691	
3.19355	  0.090839	  0.066931	  0.023814	
3.22681	  0.091091	  0.066957	  0.024681	
3.26008	  0.090211	  0.067613	  0.025184	
3.29335	  0.088725	  0.068816	  0.025205	
3.32661	  0.087093	  0.070121	  0.024708	
3.35988	  0.085712	  0.070892	  0.023874	
3.39315	  0.084931	  0.070706	  0.023029	
3.42641	  0.085023	  0.069547	  0.022356	
3.45968	  0.085762	  0.067648	  0.021916	
3.49294	  0.086762	  0.065373	  0.021723	
3.52621	  0.087597	  0.063034	  0.021713	
3.55948	  0.087944	  0.060976	  0.021798	
3.59274	  0.088280	  0.059594	  0.022003	
3.62601	  0.089254	  0.059184	  0.022384	
3.65927	  0.090814	  0.059777	  0.022958	
3.69254	  0.092280	  0.060877	  0.023647	
3.72581	  0.092514	  0.062013	  0.024282	
3.75907	  0.090937	  0.063126	  0.024606	
3.79234	  0.088233	  0.064078	  0.024506	
3.8256	  0.085229	  0.064599	  0.024023	
3.85887	  0.082468	  0.065018	  0.023333	
3.89214	  0.080364	  0.065946	  0.022622	
3.9254	  0.079126	  0.067476	  0.022008	
3.95867	  0.078840	  0.069314	  0.021498	
3.99194	  0.079262	  0.071165	  0.021122	
4.0252	  0.079980	  0.072820	  0.021008	
4.05847	  0.080320	  0.074215	  0.021267	
4.09173	  0.080260	  0.075631	  0.021867	
4.125	  0.080458	  0.077085	  0.022605	
4.15827	  0.081515	  0.078451	  0.023194	
4.19153	  0.083692	  0.079519	  0.023591	
4.2248	  0.086726	  0.079967	  0.023966	
4.25806	  0.089850	  0.079450	  0.024391	
4.29133	  0.092135	  0.077872	  0.024664	
4.3246	  0.092881	  0.075258	  0.024421	
4.35786	  0.092418	  0.071679	  0.023485	
4.39113	  0.091741	  0.067587	  0.021646	
4.4244	  0.091386	  0.063942	  0.018648	
4.45766	  0.091101	  0.061435	  0.014565	
4.49093	  0.090231	  0.060313	  0.009946	
4.52419	  0.088314	  0.060562	  0.005887	
4.55746	  0.085870	  0.062094	  0.004111	
4.59073	  0.084013	  0.064778	  0.006815	
4.62399	  0.084076	  0.069041	  0.016688	
4.65726	  0.087842	  0.076009	  0.036713	
4.69052	  0.097127	  0.087135	  0.069839	
4.72379	  0.113350	  0.103714	  0.118497	
4.75706	  0.137252	  0.126296	  0.183694	
4.79032	  0.168784	  0.154228	  0.263954	
4.82359	  0.206220	  0.185155	  0.353594	
4.85685	  0.245862	  0.215704	  0.442031	
4.89012	  0.283773	  0.242888	  0.518160	
4.92339	  0.317938	  0.265624	  0.574676	
4.95665	  0.347538	  0.284215	  0.609627	
4.98992	  0.371322	  0.299197	  0.625126	
5.02319	  0.388249	  0.311727	  0.625194	
5.05645	  0.399079	  0.324685	  0.614030	
5.08972	  0.406289	  0.339777	  0.596700	
5.12298	  0.412233	  0.357073	  0.575851	
5.15625	  0.418853	  0.375791	  0.555069	
5.18952	  0.426471	  0.393199	  0.538181	
5.22278	  0.435459	  0.408839	  0.529087	
5.25605	  0.445201	  0.421481	  0.527792	
5.28931	  0.454536	  0.429286	  0.531567	
5.32258	  0.462580	  0.433356	  0.539157	
5.35585	  0.470513	  0.436547	  0.551267	
5.38911	  0.479611	  0.441889	  0.567151	
5.42238	  0.490392	  0.451337	  0.585781	
5.45565	  0.502617	  0.464735	  0.608256	
5.48891	  0.518835	  0.483468	  0.636154	
5.52218	  0.542595	  0.508798	  0.668492	
5.55544	  0.573478	  0.539345	  0.701856	
5.58871	  0.606525	  0.568829	  0.730886	
5.62198	  0.637613	  0.591835	  0.755225	
5.65524	  0.666227	  0.609169	  0.779956	
5.68851	  0.691615	  0.620150	  0.807141	
5.72177	  0.711907	  0.624765	  0.833865	
5.75504	  0.724145	  0.624418	  0.853612	
5.78831	  0.724896	  0.619479	  0.863053	
5.82157	  0.716872	  0.614422	  0.864390	
5.85484	  0.706486	  0.612970	  0.860506	
5.8881	  0.696379	  0.614172	  0.852484	
5.92137	  0.687900	  0.615759	  0.842889	
5.95464	  0.684587	  0.618704	  0.833531	
5.9879	  0.687810	  0.624556	  0.825420	
6.02117	  0.694506	  0.630652	  0.814442	
6.05444	  0.699799	  0.632581	  0.799898	
6.0877	  0.701452	  0.628545	  0.784838	
6.12097	  0.698777	  0.619420	  0.767198	
6.15423	  0.694479	  0.606890	  0.746928	
6.1875	  0.692240	  0.595309	  0.730487	
6.22077	  0.694153	  0.590556	  0.720421	
6.25403	  0.697635	  0.593746	  0.714202	
6.2873	  0.700511	  0.603173	  0.708397	
6.32056	  0.702530	  0.617757	  0.703185	
6.35383	  0.705274	  0.637020	  0.699508	
6.3871	  0.710142	  0.656366	  0.697642	
6.42036	  0.717356	  0.673180	  0.698476	
6.45363	  0.727987	  0.689585	  0.703156	
6.4869	  0.741619	  0.705007	  0.709813	
6.52016	  0.753579	  0.713740	  0.716557	
6.55343	  0.759365	  0.709499	  0.722433	
6.58669	  0.760900	  0.693838	  0.728451	
6.61996	  0.761019	  0.670086	  0.735567	
6.65323	  0.760512	  0.641783	  0.742944	
6.68649	  0.758740	  0.614710	  0.748290	
6.71976	  0.751200	  0.592851	  0.748747	
6.75302	  0.735926	  0.577378	  0.745104	
6.78629	  0.711753	  0.566060	  0.741481	
6.81956	  0.680664	  0.556174	  0.741554	
6.85282	  0.649124	  0.548090	  0.746357	
6.88609	  0.624351	  0.544623	  0.754549	
6.91935	  0.611545	  0.548644	  0.764262	
6.95262	  0.612984	  0.560586	  0.773056	
6.98589	  0.625082	  0.578012	  0.781595	
7.01915	  0.644576	  0.600244	  0.791546	
7.05242	  0.666579	  0.626496	  0.803686	
7.08569	  0.687817	  0.656683	  0.819525	
7.11895	  0.708202	  0.690016	  0.836652	
7.15222	  0.726999	  0.724022	  0.849133	
7.18548	  0.742575	  0.755399	  0.854380	
7.21875	  0.753522	  0.780265	  0.852633	
7.25202	  0.761193	  0.795701	  0.845164	
7.28528	  0.767103	  0.800045	  0.834448	
7.31855	  0.772735	  0.796922	  0.820732	
7.35181	  0.777318	  0.787922	  0.807405	
7.38508	  0.778991	  0.772497	  0.796481	
7.41835	  0.774995	  0.748823	  0.789489	
7.45161	  0.767067	  0.719682	  0.788122	
7.48488	  0.758037	  0.690574	  0.789153	
7.51815	  0.750232	  0.667152	  0.786715	
7.55141	  0.746561	  0.653332	  0.780237	
7.58468	  0.747966	  0.648949	  0.772680	
7.61794	  0.754858	  0.653686	  0.766878	
7.65121	  0.766515	  0.665659	  0.764381	
7.68448	  0.778711	  0.683967	  0.763284	
7.71774	  0.788909	  0.708271	  0.765044	
7.75101	  0.797113	  0.737076	  0.771169	
7.78427	  0.802918	  0.765293	  0.778719	
7.81754	  0.802601	  0.784269	  0.784166	
7.85081	  0.790949	  0.784683	  0.785516	
7.88407	  0.770554	  0.767940	  0.783517	
7.91734	  0.748403	  0.740691	  0.779724	
7.9506	  0.732358	  0.713641	  0.777515	
7.98387	  0.723701	  0.691200	  0.778904	
8.01714	  0.721368	  0.673021	  0.781075	
8.0504	  0.729209	  0.664836	  0.784856	
8.08367	  0.749097	  0.669855	  0.792657	
8.11694	  0.779329	  0.689683	  0.804440	
8.1502	  0.814955	  0.721266	  0.818500	
8.18347	  0.847915	  0.757563	  0.833608	
8.21673	  0.873189	  0.792482	  0.846975	
8.25	  0.887620	  0.818312	  0.855906	
8.28327	  0.889161	  0.831622	  0.860005	
8.31653	  0.879718	  0.835650	  0.860443	
8.3498	  0.863314	  0.835913	  0.857954	
8.38306	  0.841515	  0.832770	  0.851581	
8.41633	  0.812713	  0.823646	  0.843300	
8.4496	  0.780788	  0.809094	  0.836153	
8.48286	  0.751135	  0.789950	  0.829069	
8.51613	  0.728237	  0.769848	  0.822703	
8.5494	  0.714306	  0.753160	  0.821535	
8.58266	  0.710788	  0.743570	  0.830273	
8.61593	  0.716886	  0.741700	  0.849894	
8.64919	  0.729252	  0.745861	  0.876138	
8.68246	  0.743450	  0.751617	  0.899672	
8.71573	  0.758892	  0.758970	  0.914956	
8.74899	  0.774023	  0.766825	  0.919459	
8.78226	  0.783938	  0.768962	  0.912430	
8.81552	  0.787856	  0.764956	  0.895691	
8.84879	  0.786827	  0.758966	  0.871677	
8.88206	  0.780045	  0.753296	  0.842944	
8.91532	  0.766013	  0.745793	  0.812662	
8.94859	  0.744347	  0.734113	  0.784582	
8.98185	  0.714868	  0.714099	  0.763316	
9.01512	  0.682650	  0.685768	  0.752845	
9.04839	  0.655019	  0.654208	  0.752037	
9.08165	  0.637037	  0.626523	  0.756648	
9.11492	  0.632884	  0.610069	  0.763236	
9.14819	  0.640723	  0.603526	  0.770614	
9.18145	  0.655182	  0.602410	  0.777157	
9.21472	  0.671620	  0.605977	  0.780075	
9.24798	  0.687222	  0.616025	  0.779214	
9.28125	  0.700639	  0.632566	  0.774894	
9.31452	  0.711884	  0.652478	  0.768935	
9.34778	  0.720354	  0.670442	  0.763603	
9.38105	  0.724795	  0.681638	  0.759866	
9.41431	  0.725282	  0.685840	  0.754317	
9.44758	  0.719648	  0.684786	  0.744607	
9.48085	  0.704865	  0.677242	  0.729246	
9.51411	  0.680837	  0.661660	  0.708321	
9.54738	  0.648868	  0.636563	  0.682412	
9.58065	  0.608809	  0.601010	  0.651335	
9.61391	  0.560972	  0.556388	  0.614602	
9.64718	  0.506093	  0.505535	  0.570330	
9.68044	  0.445167	  0.450514	  0.516394	
9.71371	  0.380525	  0.391542	  0.449740	
9.74698	  0.315826	  0.328443	  0.373718	
9.78024	  0.254898	  0.263927	  0.294661	
9.81351	  0.201354	  0.204164	  0.219349	
9.84677	  0.157776	  0.154057	  0.153572	
9.88004	  0.125007	  0.115594	  0.100541	
9.91331	  0.102319	  0.088301	  0.061138	
9.94657	  0.088154	  0.070270	  0.034467	
9.97984	  0.080493	  0.059149	  0.018468	
10.0131	  0.077286	  0.053038	  0.010633	
10.0464	  0.076771	  0.050140	  0.008410	
10.0796	  0.077820	  0.048978	  0.009475	
10.1129	  0.079799	  0.048785	  0.012141	
10.1462	  0.082340	  0.049124	  0.015221	
10.1794	  0.085336	  0.049777	  0.017914	
10.2127	  0.088526	  0.050684	  0.019904	
10.246	  0.091392	  0.051716	  0.021288	
10.2792	  0.093373	  0.052655	  0.022338	
10.3125	  0.093842	  0.053334	  0.023218	
10.3458	  0.092782	  0.053760	  0.023937	
10.379	  0.090873	  0.054013	  0.024442	
10.4123	  0.088911	  0.054470	  0.024666	
10.4456	  0.087181	  0.055285	  0.024628	
10.4788	  0.085801	  0.056336	  0.024480	
